<svg width="33" height="33" viewBox="0 0 33 33" fill="none" xmlns="http://www.w3.org/2000/svg">
    <path d="M20.4168 7.08346C21.6454 7.32316 22.865 7.86499 23.7501 8.75012C24.6353 9.63525 25.1771 10.8549 25.4168 12.0835M21.2501 1.25012C23.8027 1.53369 26.0996 2.76857 27.9168 4.58346C29.734 6.39834 30.9634 8.69793 31.2501 11.2501M31.2492 23.7112V28.2275C31.2563 29.9539 29.7039 31.3956 27.9609 31.2384C12.9169 31.2501 1.25024 19.4751 1.26202 4.5321C1.10504 2.79837 2.53954 1.25189 4.26376 1.25027H8.78899C9.52103 1.24308 10.2307 1.50179 10.7858 1.97819C12.3638 3.33261 13.3788 7.92974 12.9883 9.75725C12.6834 11.1841 11.2451 12.1823 10.2672 13.1582C12.4145 16.9271 15.5413 20.0477 19.3177 22.1908C20.2956 21.2148 21.2957 19.7794 22.7254 19.4751C24.5594 19.0847 29.186 20.1012 30.5351 21.6902C31.0134 22.2537 31.2676 22.9729 31.2492 23.7112Z" stroke="#363E45" stroke-width="2.5" stroke-linecap="round" stroke-linejoin="round"/>
</svg>
